<svg width="625" height="73" viewBox="0 0 625 73" fill="none" xmlns="http://www.w3.org/2000/svg" preserveAspectRatio="none">
<g opacity="0.2">
<path d="M340.5 5.34511C357.21 5.34508 373.391 2.40574 378.884 10.949C384.616 14.8073 396.798 23.3504 383.902 48.9803C372.183 72.2693 368.138 60.5552 338.047 66.3426C301.238 73.4221 280.015 59.7283 263.539 66.3426C246.826 73.0514 237 67 211.237 69.6496C185.827 72.2628 204.232 75.2991 161.802 69.6496C124.546 64.6889 142.607 60.8907 101.621 69.6496C62.9329 77.9173 62.9329 66.3426 43.5889 66.3426C24.245 66.3426 14.2147 71.3031 6.33385 52.2874C-1.54704 33.2717 -5.12956 33.2719 14.2144 10.9491C33.5584 -11.3737 35.7081 8.46852 56.4849 1.85456C72.7396 -3.31983 82.2766 7.64199 107.352 5.16165C135.347 2.39259 153.6 1.55481 183.296 5.16165C210.522 8.46857 200.49 10.949 227.715 8.46863C259.019 5.61667 273.567 -3.9328 293.628 5.16165C313.688 14.2561 316.139 5.34515 340.5 5.34511Z" fill="#EA4B48"/>
<path d="M575.915 1.85453C592.625 1.8545 608.391 2.40574 613.884 10.949C619.616 14.8073 631.396 27.8701 618.5 53.5C606.782 76.789 604.091 62.2127 574 68C537.191 75.0795 515.477 61.3858 499 68C482.287 74.7089 476 71 446.237 69.6496C420.369 68.4759 439.232 75.2991 396.802 69.6496C359.546 64.6889 371.335 53.6845 330.349 62.4434C291.661 70.7111 297.193 56.9434 277.849 56.9434C258.505 56.9434 249.215 71.3031 241.334 52.2874C233.453 33.2717 230.005 40.2661 249.349 17.9434C268.693 -4.3794 285.072 19.0573 305.849 12.4434C322.103 7.26897 317.277 7.64199 342.352 5.16165C370.347 2.39259 388.6 1.55481 418.296 5.16165C445.522 8.46857 435.49 10.949 462.715 8.46863C494.019 5.61667 508.567 -3.9328 528.628 5.16165C548.688 14.2561 551.554 1.85458 575.915 1.85453Z" fill="#EA4B48"/>
</g>
</svg>
